<?xml version="1.0" standalone="no"?>
<!DOCTYPE svg PUBLIC "-//W3C//DTD SVG 20010904//EN"
 "http://www.w3.org/TR/2001/REC-SVG-20010904/DTD/svg10.dtd">
<svg version="1.0" xmlns="http://www.w3.org/2000/svg"
 width="6000.000000pt" height="2000.000000pt" viewBox="0 0 6000.000000 2000.000000"
 preserveAspectRatio="xMidYMid meet">

<g transform="translate(0.000000,2000.000000) scale(0.100000,-0.100000)"
fill="#000000" stroke="none">
<path d="M6990 16059 c-236 -13 -426 -96 -586 -257 -194 -195 -305 -448 -366
-837 -19 -121 -22 -181 -22 -450 -1 -312 5 -395 45 -685 52 -379 154 -830 285
-1270 66 -218 156 -485 189 -555 18 -38 43 -106 55 -150 41 -149 164 -462 372
-947 11 -27 26 -48 32 -48 7 0 22 19 34 43 12 23 31 58 43 77 l22 35 -23 50
c-79 171 -330 803 -356 897 -7 26 -28 80 -48 121 -19 40 -42 102 -51 138 -9
35 -33 118 -55 184 -134 418 -215 740 -310 1230 -13 69 -47 319 -60 440 -6 55
-13 202 -17 326 -23 873 219 1377 718 1496 108 25 311 23 454 -6 414 -84 890
-335 1435 -756 94 -73 73 -68 210 -45 53 9 95 -6 95 -34 0 -43 -236 -64 -285
-26 -33 26 -39 25 -181 -10 -334 -82 -744 -237 -1079 -406 -234 -118 -340
-180 -380 -224 -31 -33 -92 -72 -275 -176 -61 -34 -185 -116 -240 -158 -74
-57 -250 -213 -298 -264 -43 -47 -47 -55 -43 -89 3 -21 8 -67 11 -103 22 -230
195 -920 342 -1360 8 -25 19 -69 24 -99 4 -30 29 -95 54 -146 25 -50 45 -98
45 -105 0 -32 228 -606 279 -704 17 -31 36 -75 42 -97 7 -21 16 -39 21 -39 5
0 37 24 72 54 78 66 162 106 222 106 37 0 29 -12 -33 -50 -84 -52 -204 -177
-246 -257 -19 -38 -71 -149 -115 -248 -91 -204 -116 -259 -199 -435 -33 -69
-70 -149 -83 -177 -13 -29 -28 -53 -32 -53 -5 0 -25 35 -44 78 -50 108 -75
162 -128 275 -25 53 -67 141 -92 195 -25 53 -57 122 -71 152 -82 178 -105 220
-142 269 -49 66 -53 87 -8 43 18 -18 38 -32 44 -32 13 0 149 83 235 143 79 55
89 49 86 -55 -3 -69 1 -91 20 -129 12 -25 22 -52 22 -60 0 -8 -30 -70 -65
-138 l-65 -125 18 -30 c12 -21 43 -45 97 -72 87 -46 105 -67 105 -129 0 -47 9
-85 20 -85 4 0 22 33 40 73 18 39 48 104 66 142 79 173 94 209 94 221 0 12
-67 168 -145 339 -38 85 -226 565 -260 665 -18 52 -38 120 -45 150 -7 30 -29
91 -50 135 -96 204 -331 1008 -384 1317 -4 21 -12 40 -18 44 -14 9 -121 -102
-219 -228 -41 -52 -123 -155 -184 -229 -185 -225 -309 -399 -368 -514 -39 -77
-103 -187 -164 -281 -40 -63 -56 -108 -112 -319 -18 -66 -37 -125 -44 -132 -7
-6 -41 -20 -77 -31 -70 -21 -293 -111 -412 -166 -434 -199 -754 -404 -981
-629 -287 -285 -402 -557 -369 -875 23 -226 125 -422 332 -636 277 -287 696
-542 1275 -774 472 -189 1251 -414 1600 -462 50 -7 122 -23 162 -36 39 -13
102 -26 140 -28 74 -5 143 -17 184 -34 93 -38 1251 -192 1289 -172 18 10 72
114 90 175 8 27 10 106 8 240 l-3 201 -40 63 c-45 71 -48 74 -123 91 -29 7
-67 19 -83 27 -17 8 -32 13 -35 10 -3 -2 -8 -28 -13 -56 -5 -29 -13 -57 -19
-63 -15 -15 -259 28 -283 49 -9 8 -34 19 -55 25 -26 7 -63 34 -116 86 -43 41
-78 80 -78 85 0 5 18 30 41 55 83 94 84 100 82 336 -1 160 -4 211 -15 220 -21
20 -307 101 -317 90 -16 -17 -52 -127 -44 -135 12 -12 125 18 135 36 12 20 43
19 122 -5 60 -19 85 -34 73 -46 -2 -2 -82 -16 -178 -30 -96 -14 -184 -31 -196
-39 -21 -14 -42 -79 -30 -92 3 -3 68 4 143 15 76 12 141 19 146 16 4 -3 8 -19
8 -36 0 -16 6 -53 14 -81 8 -29 17 -80 21 -115 l6 -62 -85 6 c-76 6 -90 4
-150 -20 -99 -39 -110 -37 -125 27 -28 125 -29 127 -66 127 -19 0 -36 -4 -39
-9 -3 -5 8 -72 26 -150 22 -98 28 -145 21 -152 -12 -12 -159 23 -179 43 -10
10 -9 36 6 133 11 68 15 124 10 129 -18 18 -38 -4 -44 -51 -17 -123 -31 -185
-42 -190 -7 -3 -59 12 -116 31 -83 30 -110 44 -140 76 l-37 40 -79 0 c-58 0
-83 4 -92 15 -16 19 -9 22 208 75 94 23 172 47 172 53 0 19 -53 67 -74 67 -12
0 -93 -18 -181 -40 -189 -47 -205 -48 -205 -17 0 28 37 224 45 237 3 6 14 10
23 10 9 0 61 7 115 17 104 18 109 22 82 73 -18 35 -40 43 -125 44 l-65 1 2 40
c2 22 12 89 24 148 21 104 21 110 4 141 -16 30 -84 76 -112 76 -7 0 -13 -11
-13 -24 0 -18 11 -30 43 -48 51 -28 55 -53 29 -178 l-18 -85 -37 3 c-63 5 -78
-10 -74 -75 2 -31 8 -58 13 -59 5 -1 21 -5 37 -8 21 -5 27 -12 27 -32 0 -43
-51 -308 -62 -321 -5 -7 -28 -16 -51 -20 l-42 -9 -6 -64 c-12 -117 9 -184 86
-270 25 -28 45 -53 45 -55 0 -3 -14 -12 -31 -21 -25 -12 -55 -15 -148 -12
-104 3 -122 6 -168 31 -62 32 -72 33 -115 9 -18 -10 -52 -23 -74 -30 -51 -15
-233 -16 -271 -1 -34 12 -163 138 -163 158 0 8 12 28 28 44 l27 30 -37 -6
c-23 -3 -41 -1 -47 6 -8 10 -6 124 9 400 0 4 4 7 9 7 10 0 22 -58 52 -252 12
-76 26 -138 30 -138 4 0 20 15 34 34 32 42 34 77 11 211 -32 191 -46 279 -46
292 0 23 23 14 100 -37 63 -43 75 -48 83 -35 14 26 3 40 -95 110 -51 36 -97
73 -101 81 -17 30 -36 173 -27 206 4 18 20 87 36 153 15 66 31 128 36 137 4
10 69 49 142 88 74 39 139 76 145 83 5 7 13 31 16 53 l7 39 -95 80 c-53 44
-98 86 -101 94 -4 7 5 38 19 68 l24 54 95 -7 95 -7 5 34 c3 19 10 68 16 109 6
41 15 107 21 145 25 169 65 284 114 328 27 25 81 47 116 47 38 0 37 -9 -7 -49
-65 -62 -96 -163 -124 -401 -6 -52 -15 -117 -20 -145 -5 -27 -14 -93 -20 -145
-6 -52 -15 -117 -20 -145 -5 -27 -14 -90 -20 -140 -6 -49 -16 -110 -20 -135
-5 -25 -14 -81 -20 -125 -6 -44 -16 -100 -21 -125 -5 -25 -16 -85 -24 -135
-29 -187 -65 -386 -97 -535 -23 -112 -128 -294 -194 -337 -13 -8 -24 -21 -24
-29 0 -14 58 -34 98 -34 42 0 144 41 204 81 l59 41 52 -40 c60 -44 107 -67
158 -77 38 -7 114 9 125 26 3 6 -7 25 -23 42 -64 68 -82 102 -94 173 -12 69
-8 118 31 364 6 36 15 94 20 130 12 90 38 254 49 320 6 30 15 93 21 140 6 47
15 105 20 130 5 25 14 83 20 130 6 47 15 108 20 135 5 28 15 83 21 123 7 46
15 72 22 69 6 -2 39 -72 72 -155 33 -83 64 -154 68 -158 4 -4 7 -13 7 -21 0
-7 9 -32 19 -56 11 -23 36 -82 56 -132 21 -49 50 -119 65 -155 15 -36 58 -137
95 -225 113 -267 186 -430 198 -437 20 -13 132 -9 150 5 9 6 43 77 77 157 33
80 67 159 75 175 7 17 23 54 35 84 11 30 30 73 40 96 10 23 28 66 40 95 12 29
29 72 39 94 11 23 31 70 46 106 14 36 34 83 44 105 10 22 60 140 111 263 52
123 99 222 106 222 8 0 15 -19 19 -47 4 -27 10 -70 15 -98 5 -27 14 -93 20
-145 6 -52 15 -117 20 -145 5 -27 14 -93 20 -145 6 -52 15 -115 20 -140 29
-138 74 -688 67 -817 -6 -107 -25 -156 -86 -225 -23 -26 -40 -52 -36 -58 10
-16 86 -32 124 -25 53 10 113 40 161 80 23 19 45 35 48 35 3 0 31 -18 62 -39
111 -78 218 -97 304 -54 34 17 36 20 36 74 0 31 -5 71 -11 88 -9 24 -9 35 0
44 8 8 11 372 11 1349 l0 1338 -25 72 c-55 157 -135 280 -274 421 -121 123
-122 127 -25 166 47 19 77 23 155 24 89 0 189 -18 189 -34 0 -4 -51 -9 -112
-11 -91 -3 -123 -8 -162 -26 l-49 -22 90 -89 c96 -95 175 -205 241 -336 79
-158 73 35 70 -2020 l-3 -1840 -38 -72 c-83 -162 -230 -353 -336 -438 -28 -22
-50 -43 -51 -47 0 -14 83 -48 144 -59 34 -6 88 -8 120 -4 65 7 187 45 251 78
50 25 211 133 220 147 14 23 58 9 106 -34 114 -102 257 -175 400 -202 115 -22
255 -8 339 34 l44 21 105 -104 c91 -89 104 -107 95 -122 -27 -44 -248 -71
-401 -49 -44 6 -63 6 -63 -2 0 -6 63 -91 140 -189 77 -98 140 -181 140 -185 0
-12 -39 -20 -68 -13 -15 3 -35 18 -44 33 -9 15 -85 114 -170 221 -144 182
-157 196 -226 235 -40 23 -95 58 -123 79 -27 20 -55 37 -60 37 -6 0 -48 -24
-92 -54 -92 -61 -157 -94 -236 -122 -29 -10 -56 -24 -58 -31 -3 -7 2 -42 10
-79 22 -96 23 -96 -97 -88 -55 3 -117 9 -136 13 l-35 7 -8 74 c-5 50 -13 79
-24 87 -27 21 -34 4 -32 -73 2 -40 0 -76 -4 -80 -8 -8 -482 44 -564 61 -34 8
-82 146 -93 270 -28 318 -33 385 -26 392 13 13 227 31 260 22 56 -16 295 -49
310 -43 25 10 28 35 5 41 -12 4 -42 17 -67 30 -60 32 -214 55 -377 57 -71 0
-137 6 -145 11 -8 6 -42 10 -76 10 -41 0 -70 6 -88 19 -17 11 -46 18 -75 18
-45 0 -245 33 -262 44 -12 7 -225 51 -359 73 -36 6 -94 18 -130 26 -36 8 -94
20 -130 25 -36 6 -92 17 -125 25 -450 107 -707 177 -991 269 -111 36 -207 66
-214 66 -7 0 -40 13 -74 29 -100 47 -166 67 -174 54 -4 -6 -30 -20 -57 -30
-48 -18 -50 -21 -57 -63 -11 -73 39 -292 118 -515 20 -55 46 -129 59 -165 79
-224 267 -650 334 -760 16 -26 46 -78 67 -116 120 -221 146 -254 478 -619 40
-44 81 -95 90 -114 23 -44 93 -119 128 -137 16 -8 31 -27 35 -43 5 -16 41 -64
82 -107 52 -56 68 -80 57 -82 -26 -5 -29 -44 -23 -236 26 -742 282 -1211 743
-1365 211 -70 516 -65 788 14 575 167 1255 615 1972 1301 l181 173 -5 78 c-8
133 -6 133 -151 -8 -804 -790 -1518 -1270 -2100 -1414 -294 -73 -516 -64 -716
29 -332 155 -525 564 -552 1169 -5 130 -4 147 10 147 8 0 26 -14 39 -31 39
-53 121 -128 153 -140 78 -28 94 -39 111 -75 26 -54 207 -193 437 -335 67 -41
147 -95 177 -120 30 -24 108 -73 173 -108 65 -35 125 -74 133 -86 21 -31 85
-75 199 -135 55 -29 130 -71 167 -92 l68 -40 32 21 c18 11 57 32 87 46 90 43
291 167 291 180 0 7 -65 65 -145 129 -79 64 -147 122 -151 127 -10 17 13 32
40 25 14 -3 85 -60 158 -126 73 -66 140 -120 149 -120 9 0 27 9 40 20 l24 20
-95 90 c-75 72 -92 93 -80 100 27 17 39 11 129 -75 60 -57 95 -83 105 -79 26
10 18 32 -30 84 -25 27 -43 54 -39 59 12 20 171 10 226 -13 17 -7 115 63 126
90 6 15 -10 55 -77 197 -25 53 -39 92 -33 98 5 5 84 12 175 16 l166 6 26 -42
c23 -36 29 -40 47 -30 11 6 25 24 31 40 6 18 17 29 29 29 23 0 101 68 93 81
-3 5 -16 9 -30 9 -17 0 -27 8 -35 27 -17 45 -7 51 90 54 50 2 95 9 102 16 24
24 -3 33 -101 33 -74 0 -102 4 -113 15 -8 8 -20 47 -27 87 -6 40 -22 131 -36
202 -13 70 -24 137 -24 147 0 24 26 25 39 2 25 -46 31 6 29 253 l-3 249 -160
5 c-88 3 -268 -1 -400 -8 -181 -9 -245 -9 -262 -1 -17 9 -29 8 -58 -6 -44 -20
-58 -11 -53 36 l3 34 258 5 c288 6 277 3 277 78 0 23 3 42 6 42 3 0 17 -14 31
-30 28 -34 43 -31 43 9 0 32 22 56 45 47 11 -4 15 -22 15 -70 0 -79 -8 -75
170 -79 l125 -2 3 -434 c1 -300 6 -438 13 -448 15 -17 103 -17 118 0 7 10 12
148 13 448 l3 434 145 5 145 5 3 67 c3 73 20 93 47 55 13 -19 15 -19 15 -3 0
11 6 16 17 14 13 -2 18 -16 20 -58 3 -48 22 -256 52 -560 6 -52 15 -149 21
-215 7 -66 15 -140 19 -165 l6 -45 104 -3 c58 -1 108 1 112 5 5 5 24 126 43
269 19 143 38 268 42 277 17 44 29 6 44 -133 10 -87 48 -365 55 -397 5 -22 9
-23 115 -23 l109 0 6 33 c2 17 12 102 20 187 8 85 24 252 35 370 11 118 25
256 30 307 15 139 15 140 -20 147 -16 3 -30 9 -30 13 0 5 39 55 86 113 87 106
293 373 316 409 10 17 7 25 -25 60 -20 23 -37 47 -37 54 0 6 30 39 66 71 69
62 184 199 184 219 0 9 -205 12 -865 12 -570 0 -865 -3 -865 -10 0 -5 25 -47
56 -93 31 -46 54 -86 50 -89 -3 -4 -55 43 -114 103 -111 112 -194 223 -241
323 l-26 56 1 951 c0 522 3 958 7 967 6 16 83 17 1126 17 1106 0 1120 0 1131
-20 7 -13 10 -320 8 -987 l-3 -968 -30 -65 c-80 -177 -166 -301 -294 -428 -75
-75 -82 -85 -69 -99 21 -20 142 -52 198 -53 121 0 295 71 455 185 50 36 93 65
97 65 3 0 30 -21 60 -46 147 -127 274 -189 438 -215 92 -14 192 -5 284 26 l70
24 29 -25 c16 -13 32 -24 35 -24 4 1 24 25 45 55 47 68 71 84 134 91 l49 6 52
-57 c29 -31 52 -65 52 -76 0 -24 -57 -170 -73 -186 -14 -15 -205 -53 -263 -53
-23 0 -54 -4 -70 -9 -16 -5 -59 -12 -96 -15 -52 -4 -71 -2 -82 10 -8 8 -46 23
-83 35 -37 11 -73 22 -80 24 -27 9 -22 -17 8 -45 18 -16 29 -33 25 -37 -9 -9
-171 -32 -233 -32 -23 -1 -43 4 -45 10 -2 7 2 39 9 73 29 129 29 127 -28 169
-28 21 -56 36 -63 34 -14 -6 -26 -101 -26 -213 0 -45 -5 -75 -12 -82 -13 -10
-119 -20 -471 -44 -204 -14 -197 -16 -197 70 0 78 -30 64 -45 -23 -9 -47 -21
-65 -44 -65 -10 0 -26 -7 -37 -15 -16 -13 -17 -16 -4 -25 8 -5 27 -10 43 -10
26 0 27 -1 27 -60 l0 -60 -75 0 c-181 0 -304 -87 -359 -252 -39 -117 -49 -328
-22 -475 14 -79 58 -186 94 -227 64 -72 183 -112 300 -102 117 9 202 59 259
149 111 176 110 562 -2 753 -26 44 -77 90 -131 117 -32 16 -32 17 -18 54 7 21
13 52 14 69 0 18 6 34 15 37 19 8 414 36 540 40 l100 2 -1 -25 c-2 -30 -25
-143 -31 -150 -3 -3 -55 -7 -116 -10 l-112 -5 -5 -85 -5 -85 -72 -3 c-68 -3
-73 -4 -73 -26 0 -42 24 -60 87 -66 l58 -5 0 -100 0 -100 -40 -3 c-22 -2 -44
-7 -49 -12 -15 -15 13 -39 43 -38 46 1 51 -8 51 -91 0 -71 -6 -93 -66 -257
-36 -98 -71 -194 -77 -212 -6 -18 -18 -37 -26 -42 -13 -6 -289 -16 -338 -11
-6 1 -15 11 -19 24 -10 32 -21 37 -97 37 -125 0 -201 61 -273 218 -15 34 -34
35 -34 2 0 -32 -20 -34 -51 -4 -21 20 -32 25 -40 17 -14 -14 -24 -123 -15
-159 11 -41 362 -378 646 -619 552 -469 1059 -780 1515 -928 368 -120 740
-112 990 23 310 167 506 505 580 995 25 168 38 412 29 575 -10 205 -10 207 13
233 12 12 121 171 243 352 123 182 273 404 335 495 l111 165 217 541 c213 533
216 544 242 687 27 160 30 197 15 197 -6 0 -52 -15 -103 -34 -140 -52 -417
-138 -666 -205 -123 -34 -232 -68 -242 -77 -12 -11 -27 -14 -48 -9 -20 4 -69
-3 -138 -20 -173 -42 -168 -40 -182 -88 -46 -158 -113 -357 -121 -357 -14 0
-12 66 5 205 19 149 19 165 0 165 -24 0 -31 -28 -50 -187 -10 -83 -21 -157
-26 -164 -14 -23 -299 29 -299 54 0 7 14 32 30 57 35 53 38 75 9 91 -18 9 -20
17 -15 51 6 39 6 40 -21 34 -113 -25 -688 -108 -1048 -152 -121 -15 -230 -30
-242 -35 -20 -7 -21 -11 -11 -46 15 -56 53 -127 119 -225 33 -49 54 -88 47
-88 -20 0 -208 199 -270 286 -63 88 -108 174 -132 249 -15 45 -16 222 -14
1885 l3 1835 42 77 c70 131 194 275 384 449 l90 82 105 -104 c57 -57 104 -110
103 -119 0 -8 -30 -40 -65 -70 -86 -73 -241 -235 -304 -318 -28 -37 -69 -103
-91 -148 l-39 -81 2 -459 3 -459 54 75 c160 220 430 414 711 510 52 18 101 39
109 46 27 25 341 814 341 858 0 9 14 45 32 79 17 34 44 107 59 162 15 55 42
141 59 190 41 117 150 498 184 645 15 63 36 149 46 190 16 64 67 317 83 414 3
17 1 40 -3 51 -16 42 -334 302 -605 497 -102 73 -375 238 -531 322 -379 203
-829 384 -1168 470 -92 23 -100 24 -139 9 -28 -10 -81 -16 -156 -17 l-113 -1
-59 64 c-67 73 -55 69 -299 101 -534 70 -1128 63 -1589 -20 -62 -11 -125 -20
-140 -20 -17 0 -51 21 -101 62 -496 407 -1049 720 -1465 828 -182 47 -311 59
-505 49z m2659 -1548 c30 -42 26 -51 -19 -51 -46 0 -59 17 -42 56 15 32 36 30
61 -5z m129 -7 c12 -8 22 -22 22 -30 0 -22 -47 -17 -64 8 -26 37 1 51 42 22z
m-775 -45 c43 -17 76 -36 74 -42 -5 -15 -48 -25 -144 -33 -73 -6 -83 -5 -89
11 -5 11 2 25 20 41 14 14 26 31 26 39 0 22 27 18 113 -16z m2512 -1119 c17
-19 17 -22 3 -36 -14 -14 -18 -14 -37 7 -11 13 -21 29 -21 36 0 20 35 15 55
-7z m76 -100 c4 -8 18 -37 31 -65 12 -27 24 -54 26 -59 7 -13 -81 3 -94 17 -6
7 -16 26 -21 43 -19 55 32 112 58 64z m287 -262 c51 -33 76 -59 114 -117 26
-40 48 -81 48 -90 0 -26 -21 -41 -54 -41 -59 0 -177 155 -193 253 -7 49 4 48
85 -5z m-2612 -619 c84 -17 90 -29 14 -29 -207 0 -390 -74 -556 -224 -57 -51
-69 -54 -101 -27 -30 25 -29 37 5 67 151 136 347 220 523 223 31 1 82 -4 115
-10z m3034 -48 c34 -15 32 -16 -110 -22 -113 -5 -158 -11 -204 -28 -117 -44
-200 -94 -304 -183 -24 -21 -51 -38 -60 -38 -19 1 -62 33 -62 47 0 5 19 25 43
44 142 118 285 183 432 198 95 10 222 1 265 -18z m-1233 -11 c79 -10 144 -32
126 -43 -5 -3 -15 -2 -23 4 -39 24 -248 -5 -291 -40 -21 -17 -20 -18 73 -111
139 -141 268 -352 297 -488 13 -62 16 -1109 3 -1130 -7 -10 -240 -12 -1133
-10 l-1124 3 0 595 0 595 26 55 c39 80 132 206 224 302 119 123 246 238 264
238 16 0 211 -188 211 -204 0 -5 -66 -72 -147 -150 -165 -159 -266 -284 -321
-395 l-37 -76 -3 -454 c-2 -318 0 -457 8 -465 14 -14 1896 -19 1923 -4 17 9
18 40 15 566 l-3 557 -28 65 c-70 165 -127 250 -255 382 -68 70 -122 133 -120
140 9 30 104 63 223 77 6 0 47 -4 92 -9z m1840 -137 c-16 -16 -18 -16 -34 0
-17 17 -17 19 2 33 17 12 21 12 34 -1 14 -13 13 -17 -2 -32z m-81 -84 c24 -6
44 -15 44 -20 0 -14 -47 -22 -85 -15 -36 7 -50 19 -40 36 8 13 26 13 81 -1z
m-7806 -494 c14 -17 8 -92 -11 -126 -6 -11 -39 -33 -73 -48 -34 -16 -69 -39
-78 -53 -25 -38 -48 -114 -59 -197 -18 -133 -27 -183 -62 -316 -19 -71 -55
-231 -80 -355 -44 -215 -46 -237 -56 -485 -6 -143 -16 -379 -22 -525 l-11
-265 36 -202 c39 -222 42 -253 23 -253 -7 0 -83 33 -169 74 -625 294 -1014
625 -1151 976 -51 133 -60 315 -23 453 69 252 309 523 676 762 236 154 457
267 775 396 93 38 179 76 192 84 12 8 27 33 33 55 12 43 37 53 60 25z m2698
-539 c29 -31 63 -80 76 -108 36 -82 38 -96 106 -588 12 -85 30 -216 40 -290
10 -74 28 -205 40 -290 79 -579 78 -572 100 -636 15 -43 17 -60 8 -78 -15 -35
6 -144 42 -210 43 -79 38 -88 -20 -33 -85 80 -170 218 -170 275 0 13 -4 42 -9
65 -5 23 -14 87 -21 142 -6 55 -15 123 -20 150 -5 28 -14 93 -20 145 -6 52
-15 118 -20 145 -5 28 -14 93 -20 145 -6 52 -15 118 -20 145 -5 28 -14 93 -20
145 -6 52 -15 118 -20 145 -5 28 -14 93 -20 145 -6 52 -15 118 -20 145 -5 28
-14 93 -20 145 -16 138 -45 283 -60 305 -4 6 -10 23 -14 38 -6 25 -5 27 11 18
10 -5 42 -34 71 -65z m-2782 -253 c14 -32 24 -69 21 -83 -6 -38 -147 -578
-158 -607 -6 -17 -13 -23 -20 -16 -6 6 -6 103 1 279 10 255 20 343 43 389 16
33 68 95 78 95 6 0 21 -26 35 -57z m1684 -103 c0 -23 -4 -30 -20 -30 -23 0
-24 1 -8 35 15 34 28 32 28 -5z m-1570 -77 c0 -158 -22 -620 -31 -644 -6 -14
-37 -52 -69 -84 l-60 -59 -30 29 c-16 16 -30 37 -30 48 0 11 43 187 95 392 52
205 95 376 95 379 0 3 7 6 15 6 12 0 15 -14 15 -67z m170 -89 c25 -36 48 -73
51 -82 3 -8 -13 -92 -35 -185 -36 -150 -44 -172 -69 -190 -48 -36 -49 -24 -37
259 6 142 14 262 16 266 9 15 30 -4 74 -68z m98 22 c2 -10 -1 -23 -7 -29 -15
-15 -46 16 -37 38 8 21 40 15 44 -9z m91 -232 c69 -56 75 -67 53 -86 -29 -26
-168 -98 -175 -91 -12 11 -8 51 14 138 15 60 26 85 37 85 8 0 40 -21 71 -46z
m-249 -378 c0 -7 -6 -19 -14 -25 -11 -9 -15 -8 -20 5 -3 9 -4 20 0 25 8 14 34
11 34 -5z m-98 -188 c19 -108 18 -131 -5 -122 -20 7 -117 128 -117 145 0 23
82 101 93 90 6 -6 18 -57 29 -113z m-81 -120 l81 -93 -6 -175 c-4 -96 -11
-269 -15 -384 l-8 -209 -27 -24 c-31 -26 -44 -23 -90 25 -25 27 -31 47 -52
169 -13 76 -33 189 -44 252 -19 101 -20 136 -14 289 l7 175 30 33 c16 19 35
34 42 34 8 0 51 -42 96 -92z m-272 -335 c19 -67 12 -171 -10 -157 -13 8 -39
72 -39 97 0 29 22 97 31 97 4 0 13 -17 18 -37z m1966 -579 c20 -20 18 -125 -3
-132 -11 -3 -50 68 -67 126 -6 19 -3 22 24 22 16 0 37 -7 46 -16z m188 -45
c45 -11 88 -26 95 -33 15 -15 39 -133 28 -143 -4 -4 -26 3 -49 17 -34 20 -56
25 -112 25 -38 0 -76 4 -82 8 -13 8 -18 102 -7 131 8 21 29 20 127 -5z m495
-314 c2 -99 0 -204 -3 -232 l-6 -53 -42 0 c-55 1 -118 16 -127 31 -9 13 -58
222 -61 254 -3 39 1 45 49 69 26 13 67 45 92 71 34 34 51 45 70 43 l25 -3 3
-180z m275 139 c111 -19 206 -39 211 -44 4 -4 1 -32 -7 -61 -14 -46 -14 -65
-2 -165 8 -62 21 -130 30 -150 8 -20 15 -45 15 -56 0 -19 -4 -20 -77 -13 -161
14 -378 46 -392 58 -12 10 -13 46 -8 230 6 198 9 237 23 237 2 0 95 -16 207
-36z m-863 -162 c0 -46 55 -55 123 -21 24 13 62 22 91 23 l50 1 23 -95 c29
-121 29 -130 1 -130 -42 -1 -293 43 -305 53 -14 10 -17 68 -7 141 6 44 24 65
24 28z m8470 -222 c0 -11 -4 -20 -10 -20 -5 0 -10 9 -10 20 0 11 5 20 10 20 6
0 10 -9 10 -20z m-265 -112 c53 -26 54 -33 20 -123 -39 -105 -53 -129 -90
-154 -50 -34 -59 -21 -45 64 6 38 15 102 20 142 5 41 12 79 15 84 9 14 31 11
80 -13z m-162 -15 c8 -13 -42 -317 -55 -341 -16 -29 -145 -89 -160 -74 -7 7
11 70 53 189 48 135 70 185 92 206 28 26 61 35 70 20z m-288 -70 c30 -15 57
-35 60 -44 3 -9 -22 -94 -56 -189 -55 -151 -66 -174 -93 -191 -41 -25 -51 -20
-51 27 1 37 40 353 51 402 6 29 22 28 89 -5z m-7435 -97 c56 -13 79 -39 43
-49 -83 -24 -114 -19 -131 19 -23 49 -11 53 88 30z m6995 -146 c33 -22 71 -40
86 -40 14 0 45 -13 70 -28 24 -16 52 -31 62 -35 21 -8 24 -62 3 -70 -7 -3 -56
8 -107 24 -52 16 -124 39 -161 50 -37 12 -69 27 -72 35 -9 23 24 104 42 104
10 0 44 -18 77 -40z m-6721 -83 c8 -89 5 -120 -10 -105 -13 14 -71 183 -67
196 4 8 18 12 37 10 l31 -3 9 -98z m-156 46 c12 -30 122 -328 175 -475 21 -59
28 -91 21 -98 -11 -11 -491 66 -512 83 -10 8 -8 16 8 41 12 17 30 51 41 76 11
25 33 57 48 72 23 23 71 133 71 165 0 6 -18 34 -40 62 -41 52 -49 78 -27 86
36 14 174 31 188 24 9 -5 21 -21 27 -36z m6175 -26 c18 -8 38 -21 45 -30 12
-14 16 -14 40 0 25 14 38 13 160 -10 74 -15 140 -31 147 -37 23 -19 7 -116
-31 -192 -19 -36 -39 -70 -46 -75 -7 -4 -121 -31 -253 -60 -203 -45 -242 -51
-251 -39 -10 14 0 161 13 196 3 8 7 49 7 91 2 86 8 98 75 141 52 32 51 32 94
15z m1499 -12 c-8 -45 -117 -307 -129 -312 -37 -14 -32 18 22 162 30 81 60
154 67 162 16 20 44 11 40 -12z m-162 -69 c0 -21 -60 -175 -71 -182 -11 -6
-89 37 -108 60 -23 28 7 68 78 104 69 35 101 40 101 18z m-660 -62 c122 -34
137 -42 119 -59 -14 -14 -304 -105 -333 -105 -23 0 -20 17 19 96 39 82 60 107
84 100 9 -3 59 -17 111 -32z m213 -110 c3 -3 -32 -115 -78 -247 -72 -211 -92
-258 -157 -366 -41 -69 -79 -126 -84 -128 -22 -7 -63 39 -80 90 -13 39 -34 70
-90 128 -41 42 -74 79 -74 81 0 18 84 287 94 303 10 14 70 37 217 82 199 60
240 69 252 57z m117 -7 c0 -14 -47 -87 -56 -87 -9 0 6 73 18 88 14 16 38 16
38 -1z m-1245 -89 c-4 -51 -11 -100 -15 -108 -9 -17 -213 -55 -232 -44 -13 9
-5 49 26 117 23 53 27 57 58 57 26 0 42 9 68 35 26 27 42 35 68 35 l34 0 -7
-92z m1410 26 c25 -15 49 -33 52 -40 5 -14 -167 -482 -191 -519 -16 -24 -274
-112 -299 -102 -14 5 -15 11 -3 49 10 35 323 579 359 626 14 18 29 15 82 -14z
m-900 -104 c9 -15 -101 -226 -131 -249 -38 -30 -51 -27 -104 23 -33 31 -59 46
-86 51 -22 3 -54 10 -72 16 -18 6 -46 8 -62 4 -37 -8 -49 14 -27 48 12 19 34
27 104 42 48 10 142 30 208 45 134 31 161 34 170 20z m1045 -9 c0 -10 -7 -24
-15 -31 -12 -10 -15 -10 -15 3 0 23 11 47 21 47 5 0 9 -8 9 -19z m-7580 -126
c118 -19 232 -38 252 -41 20 -3 42 -11 47 -18 6 -7 32 -110 58 -229 26 -120
51 -217 55 -217 4 0 8 40 8 89 0 96 3 101 57 101 29 0 30 -7 -21 132 -42 115
-40 118 62 107 273 -30 449 -52 463 -60 11 -6 21 -35 30 -91 8 -46 14 -87 14
-93 0 -5 -36 -12 -80 -15 l-80 -5 0 -510 0 -510 325 -3 c359 -3 350 -4 350 61
0 63 -8 67 -145 67 -119 0 -125 1 -125 20 0 21 -55 213 -65 231 -10 15 -45 10
-45 -6 0 -8 13 -59 29 -112 16 -54 30 -105 32 -113 3 -13 -13 -15 -106 -15
l-110 0 -3 156 -2 157 35 6 c19 4 99 6 178 6 78 -1 152 -1 165 0 20 0 22 5 22
60 l0 60 -122 2 c-68 2 -152 3 -188 3 -97 1 -91 -3 -88 73 l3 67 34 0 c37 0
34 4 55 -88 5 -22 12 -28 29 -25 20 3 22 8 19 60 -5 70 -11 67 178 71 l135 2
29 -82 c15 -46 26 -90 22 -98 -3 -9 -18 -15 -35 -15 -16 0 -33 -5 -36 -10 -12
-19 17 -40 55 -40 21 0 42 -6 48 -12 21 -27 195 -579 185 -589 -6 -6 -74 -7
-188 -2 -140 7 -180 12 -189 24 -20 27 -45 30 -64 8 -15 -18 -25 -19 -102 -13
-47 3 -104 13 -127 21 -36 13 -50 14 -87 3 -30 -8 -69 -10 -116 -5 -85 9 -81
4 -145 170 -26 66 -54 128 -63 137 -18 22 -31 254 -15 283 11 20 15 15 105
-150 24 -44 48 -78 53 -75 6 3 10 30 9 60 0 41 -9 70 -32 114 -32 62 -33 76
-3 76 9 0 22 5 28 11 18 18 3 39 -27 39 -46 0 -78 17 -95 50 -22 43 -7 58 62
62 63 3 80 19 69 61 -6 26 -7 26 -89 24 l-82 -2 -3 118 -3 117 -59 0 -60 0 0
-374 c0 -206 -3 -381 -6 -390 -13 -33 -33 -14 -60 57 -15 39 -42 109 -61 155
-43 107 -43 112 8 112 36 0 40 2 37 22 -2 17 -12 24 -38 28 -65 11 -70 24 -15
35 50 11 50 11 50 51 l0 39 -76 -3 -75 -4 -17 39 c-9 21 -34 81 -55 133 l-39
95 -89 0 -89 0 -3 -499 c-1 -349 1 -503 9 -512 6 -7 36 -14 67 -16 50 -3 57
-6 60 -25 2 -15 12 -25 28 -28 13 -3 35 -7 47 -10 26 -5 197 -221 197 -248 0
-16 -60 -30 -86 -20 -8 3 -24 22 -34 43 -23 46 -88 103 -153 136 -29 15 -56
39 -69 60 -19 33 -33 40 -88 46 -23 3 -25 8 -31 66 -6 59 -9 67 -57 115 -56
57 -117 159 -158 264 -15 37 -42 90 -60 118 -22 33 -30 53 -23 61 9 11 125 34
169 34 14 0 36 -21 67 -64 26 -36 51 -63 55 -60 4 3 8 52 8 109 0 89 -3 107
-19 122 -22 22 -195 641 -185 666 9 24 38 22 284 -18z m5985 24 c4 -6 4 -25 1
-43 -5 -26 -15 -36 -51 -54 -49 -24 -69 -50 -54 -73 25 -40 -6 -94 -86 -149
-23 -16 -66 -50 -96 -75 -60 -51 -74 -55 -83 -22 -12 46 -4 80 55 231 68 176
43 154 204 181 103 17 103 17 110 4z m1624 -121 c-24 -61 -40 -85 -63 -99 -35
-21 -56 -24 -56 -8 0 11 75 132 118 189 40 53 41 16 1 -82z m-1974 63 c8 -14
-65 -191 -79 -191 -7 0 -27 18 -45 41 -44 54 -66 50 -105 -18 -38 -67 -61 -71
-52 -10 24 156 19 151 145 172 95 16 128 18 136 6z m-5904 -216 c87 -313 79
-328 -42 -78 -76 158 -79 165 -64 191 8 15 20 40 25 56 8 21 14 26 22 18 6 -6
33 -90 59 -187z m5589 145 c0 -16 -7 -59 -16 -97 -8 -37 -16 -80 -16 -95 -1
-21 -7 -30 -25 -34 -13 -4 -25 -16 -28 -28 -42 -206 -40 -203 -88 -208 l-32
-3 -1 -80 c-2 -135 -38 -223 -120 -293 l-44 -38 100 -203 c56 -112 99 -209 96
-216 -5 -14 -134 -24 -201 -15 -32 4 -41 10 -43 28 -3 21 0 22 72 22 61 0 76
3 76 15 0 8 -43 101 -96 207 l-96 191 61 56 c85 79 106 129 105 251 0 83 -4
102 -28 153 -45 94 -156 157 -274 157 -23 0 -42 5 -42 10 0 6 10 49 21 96 17
66 27 88 43 95 17 7 210 30 521 62 45 4 55 -2 55 -33z m-4083 -46 c58 -4 96
-11 103 -19 15 -18 42 -135 36 -152 -4 -11 -37 -13 -153 -11 l-148 3 -2 27
c-1 14 -6 52 -12 84 -13 71 -4 87 48 80 20 -3 77 -8 128 -12z m-1597 -261 c83
-172 102 -223 81 -223 -10 0 -65 10 -168 31 -50 10 -53 13 -76 62 -27 57 -47
139 -47 191 0 27 9 42 49 80 28 25 56 43 63 41 7 -3 51 -85 98 -182z m1870 97
c12 -8 9 -10 -13 -10 -16 0 -26 4 -22 10 8 12 16 12 35 0z m1170 -19 c5 -11
10 -50 10 -88 0 -59 7 -125 26 -261 5 -31 57 -102 75 -102 5 0 9 8 9 18 0 19
18 42 33 42 5 0 7 -15 4 -32 -3 -18 -22 -127 -41 -243 -44 -256 -44 -257 -59
-252 -14 4 -16 22 -57 465 -17 184 -35 363 -39 398 -4 35 -5 66 -3 69 11 11
32 4 42 -14z m2770 0 c11 -21 15 -477 4 -505 -4 -10 -18 -16 -39 -16 l-34 0
-3 263 c-2 144 -2 265 0 270 7 16 61 7 72 -12z m547 7 c4 -7 6 -59 4 -116 -2
-82 -8 -116 -28 -165 -42 -104 -80 -173 -123 -222 -22 -25 -40 -53 -40 -61 0
-8 12 -36 26 -62 15 -26 51 -94 82 -152 74 -142 102 -193 113 -205 5 -5 9 -30
9 -56 0 -57 -2 -57 -127 -51 -68 3 -93 8 -97 19 -10 26 4 33 65 33 40 0 61 4
65 13 2 7 -50 116 -116 241 -66 126 -120 238 -120 248 0 11 19 42 43 68 47 53
96 138 122 215 22 64 46 211 38 231 -3 9 0 20 8 25 21 13 67 11 76 -3z m-2777
-5 c0 -5 -3 -19 -7 -32 -6 -23 -7 -23 -13 -5 -4 10 -5 25 -3 32 5 13 23 17 23
5z m4240 -11 c0 -20 -387 -577 -403 -580 -28 -6 -20 23 31 102 26 41 94 150
152 242 114 182 165 244 198 244 12 0 22 -4 22 -8z m-4265 -229 c-5 -30 -25
-47 -25 -23 0 24 -30 6 -68 -41 -42 -51 -57 -109 -32 -124 6 -3 10 -23 10 -43
0 -20 3 -47 6 -60 6 -22 7 -22 26 -5 37 33 50 71 43 126 -5 39 -2 57 9 72 15
19 15 18 16 -21 0 -36 -6 -106 -24 -289 -3 -22 -8 -83 -12 -135 -7 -105 -19
-149 -34 -134 -6 6 -32 139 -59 297 -26 157 -54 293 -61 302 -8 10 -30 15 -61
15 -47 0 -55 -4 -84 -45 -14 -19 -14 -19 -15 11 0 46 15 54 108 54 94 0 79
-10 200 132 l57 67 3 -62 c2 -34 0 -77 -3 -94z m4015 129 c0 -21 -89 -147
-106 -150 -25 -4 -99 71 -91 91 10 26 197 82 197 59z m-3327 -16 c70 -29 129
-134 147 -263 7 -46 10 -90 6 -98 -8 -21 -111 -21 -119 -1 -3 8 -3 56 0 107 5
81 9 96 30 115 21 19 23 26 13 44 -36 66 -225 65 -261 -1 -12 -24 -5 -27 83
-31 38 -2 73 -9 79 -15 13 -13 -3 -209 -20 -226 -6 -6 -55 -13 -111 -15 -90
-4 -100 -6 -100 -23 0 -17 9 -19 100 -19 80 0 102 -3 106 -15 7 -18 -25 -237
-37 -256 -8 -12 -10 -12 -18 0 -8 12 -13 12 -35 -3 -31 -20 -34 -52 -6 -59 11
-3 20 -10 20 -17 0 -17 -39 -3 -80 29 -72 55 -110 178 -110 356 0 155 34 287
88 349 44 50 157 71 225 42z m900 -20 c35 -15 74 -52 64 -62 -4 -4 -68 -2
-142 5 -75 6 -140 9 -146 5 -6 -3 -9 -64 -8 -152 l1 -147 -27 -3 c-16 -2 -32
2 -36 10 -10 15 -12 318 -3 342 5 13 27 16 135 16 87 0 140 -4 162 -14z
m-4493 -500 c82 -197 155 -364 161 -372 9 -11 31 -14 88 -12 l76 3 3 40 c4 59
12 89 22 79 13 -14 60 -135 60 -156 0 -17 -12 -18 -159 -18 l-158 0 -39 63
c-21 34 -82 123 -136 197 l-98 135 -1 95 c0 52 -3 139 -5 194 -3 67 -1 103 7
112 7 8 16 11 21 6 4 -4 75 -169 158 -366z m1458 361 c6 -7 14 -56 18 -109 8
-112 8 -111 -91 -100 l-60 7 -31 95 c-22 67 -29 99 -22 108 14 17 172 17 186
-1z m3130 -31 c11 -11 11 -21 1 -54 -19 -66 -35 -74 -160 -86 -68 -6 -113 -6
-119 0 -13 13 7 146 24 159 20 15 236 -1 254 -19z m-5271 -22 c31 -8 19 -24
-18 -24 -19 0 -29 5 -29 15 0 16 12 18 47 9z m2171 -216 c6 -7 13 -29 16 -48
3 -19 24 -135 46 -256 22 -122 40 -236 40 -254 0 -27 -3 -31 -22 -28 -20 3
-34 35 -120 288 -54 157 -96 291 -93 298 3 8 25 12 63 12 36 0 64 -5 70 -12z
m2259 -3 c8 -24 -22 -175 -48 -235 -15 -35 -36 -62 -62 -81 -76 -55 -79 -43
-47 172 15 97 25 137 37 147 25 18 112 16 120 -3z m1550 -67 c27 -35 23 -49
-15 -65 -20 -9 -53 -19 -72 -22 l-35 -6 -5 -180 -5 -180 -94 -3 c-95 -3 -116
4 -104 35 3 8 22 13 54 13 38 0 51 4 59 19 6 11 10 90 10 185 l0 165 43 11
c23 5 62 16 87 24 58 18 66 19 77 4z m-881 -16 c6 -4 21 -26 33 -50 l22 -43
-21 -35 -22 -34 51 -145 c33 -97 46 -147 39 -151 -6 -4 -89 -11 -185 -17 -171
-10 -174 -10 -193 11 -22 24 -47 20 -68 -10 -14 -19 -57 -25 -67 -9 -5 10 21
88 36 105 5 5 14 4 23 -3 8 -7 36 -11 68 -9 l53 3 3 185 c2 160 5 187 19 198
18 13 190 17 209 4z m2321 -118 c2 -6 -21 -36 -51 -65 l-54 -54 -5 -250 c-4
-137 -11 -286 -17 -330 -52 -381 -164 -643 -348 -817 -256 -241 -613 -282
-1080 -122 -111 38 -290 114 -331 140 -28 19 -19 31 41 54 51 20 941 555 1013
610 52 39 522 481 588 552 34 38 37 45 37 102 l0 60 68 69 c60 60 71 67 101
65 19 -2 36 -8 38 -14z m-6881 -226 c17 -33 17 -35 -11 -40 -17 -2 -20 3 -23
40 -4 49 8 49 34 0z m559 -157 c36 -6 43 -12 89 -89 38 -64 46 -86 36 -92 -7
-4 -62 -11 -122 -15 -83 -6 -112 -4 -124 6 -30 25 -144 192 -137 201 6 10 176
3 258 -11z m5482 -8 c6 -18 -226 -253 -249 -253 -12 0 -18 6 -16 14 2 8 52 69
112 136 80 89 115 120 129 118 11 -2 22 -8 24 -15z m-5182 -19 c20 -20 65
-108 65 -128 0 -20 -22 -26 -94 -26 -70 0 -73 2 -124 88 -48 79 -46 82 52 82
64 0 88 -4 101 -16z m3829 10 c24 -9 40 -68 25 -96 -30 -59 -26 -58 -223 -52
-239 7 -266 10 -266 34 0 33 33 90 55 95 11 3 90 9 175 13 221 13 217 13 234
6z m-3537 -19 c17 -6 66 -106 56 -115 -4 -4 -44 -10 -89 -14 -91 -7 -94 -5
-134 72 -33 67 -25 74 72 66 46 -3 88 -7 95 -9z m403 -13 c52 -7 55 -9 69 -45
11 -30 12 -40 2 -46 -15 -10 -329 -23 -342 -15 -13 8 -49 80 -49 99 0 13 19
15 133 14 72 -1 157 -4 187 -7z m2444 2 c20 -8 20 -27 1 -64 -15 -28 -19 -30
-76 -30 -55 0 -60 2 -70 27 -17 47 -9 57 51 64 30 3 60 6 67 7 6 1 18 -1 27
-4z m191 -3 c13 -22 -37 -101 -65 -101 -38 0 -43 52 -7 98 11 14 63 16 72 3z
m-2423 -35 c12 -28 4 -60 -15 -54 -16 6 -40 55 -32 68 11 18 35 11 47 -14z
m4348 20 c0 -2 -8 -10 -17 -17 -16 -13 -17 -12 -4 4 13 16 21 21 21 13z m-340
-24 c0 -11 -104 -133 -123 -143 -10 -6 -18 -5 -22 1 -4 6 24 42 61 80 63 66
84 81 84 62z m-1845 -167 c0 -30 -39 -27 -43 3 -3 20 0 23 20 20 15 -2 23 -10
23 -23z m172 9 c6 -17 -42 -150 -59 -160 -11 -7 -78 26 -78 39 0 17 60 125 72
130 27 11 59 6 65 -9z m-2839 -6 c22 -28 132 -283 128 -295 -11 -29 -46 -11
-98 50 -140 161 -189 228 -177 243 15 18 132 19 147 2z m3261 4 c30 -4 56 -12
58 -19 4 -10 -190 -238 -231 -272 -10 -9 -50 -15 -109 -18 -80 -4 -96 -2 -125
16 -18 12 -35 28 -39 37 -5 14 30 112 80 222 l19 42 147 -1 c80 -1 170 -4 200
-7z m-3510 -34 c77 -87 201 -244 201 -256 0 -11 -23 -13 -111 -10 -101 3 -112
5 -127 26 -29 37 -141 226 -144 242 -3 16 37 26 109 29 36 1 47 -4 72 -31z
m-257 10 c26 -22 160 -246 153 -258 -10 -16 -78 -12 -105 7 -50 34 -251 226
-247 237 2 6 37 14 78 17 41 3 81 6 90 7 8 1 22 -4 31 -10z m4031 6 c3 -4 -8
-23 -25 -44 l-30 -39 27 -81 c20 -59 24 -85 16 -93 -6 -6 -60 -13 -121 -15
-99 -4 -110 -3 -110 12 0 26 119 234 143 251 21 15 88 21 100 9z m-4465 -41
c33 -29 142 -184 136 -194 -11 -18 -42 -8 -99 35 -64 46 -102 84 -130 128 -17
27 -17 28 6 37 37 15 65 13 87 -6z m230 -114 c96 -84 104 -103 41 -97 -29 3
-43 15 -101 92 -105 137 -89 138 60 5z m5162 72 c0 -10 -24 -41 -54 -70 -45
-41 -61 -51 -90 -51 -66 0 -54 19 58 98 65 46 86 52 86 23z m-340 -44 c0 -7
-20 -34 -43 -60 -42 -45 -46 -47 -97 -47 l-53 0 19 21 c18 20 150 99 167 99 4
0 7 -6 7 -13z m-251 -86 c16 -10 6 -31 -14 -31 -17 0 -28 17 -20 30 8 12 16
12 34 1z m321 -85 c0 -11 -262 -188 -498 -335 -60 -38 -84 -33 -33 6 49 39
358 264 420 306 54 38 111 50 111 23z m-290 -25 c0 -9 -29 -31 -290 -221 -106
-78 -163 -113 -182 -113 -28 0 -78 27 -78 43 0 9 188 177 217 193 10 6 22 2
37 -12 12 -12 31 -21 42 -21 20 0 156 79 204 119 26 21 50 27 50 12z m-410
-24 c0 -13 -174 -170 -218 -198 -17 -10 -26 -8 -63 13 -94 55 -95 71 -10 151
l50 47 121 0 c93 0 120 -3 120 -13z"/>
<path d="M9860 6163 c0 -25 15 -38 25 -22 4 6 0 18 -9 27 -15 15 -16 15 -16
-5z"/>
<path d="M10215 6110 c4 -19 11 -51 15 -70 l7 -35 11 28 c18 42 15 61 -14 88
l-27 24 8 -35z"/>
<path d="M12978 16058 c-232 -13 -486 -94 -803 -253 -293 -148 -533 -303 -843
-544 -143 -111 -194 -159 -189 -175 5 -16 48 -36 80 -36 70 0 114 23 272 141
534 400 974 625 1381 704 131 26 345 25 449 -2 388 -101 609 -426 687 -1008
17 -133 17 -639 0 -805 -52 -482 -160 -988 -334 -1555 -22 -71 -50 -161 -63
-200 -12 -38 -28 -95 -35 -125 -7 -30 -30 -90 -51 -132 -22 -43 -39 -84 -39
-93 0 -21 -137 -381 -231 -610 -44 -104 -79 -196 -79 -203 0 -12 12 -14 60 -9
97 11 109 16 126 56 78 181 234 584 261 676 8 28 18 55 22 60 5 6 18 42 30 80
13 39 36 106 51 150 80 225 187 589 254 865 95 388 149 695 188 1055 17 162
17 668 0 805 -54 414 -173 696 -382 900 -48 47 -118 103 -156 126 -78 46 -204
98 -279 115 -77 17 -247 25 -377 17z"/>
<path d="M14146 13393 c-3 -10 -12 -52 -20 -93 -46 -228 -80 -367 -135 -565
-35 -121 -73 -260 -86 -310 -22 -82 -92 -291 -223 -660 -27 -77 -88 -237 -136
-355 -47 -118 -84 -220 -82 -226 2 -6 42 -14 88 -18 118 -11 240 -33 334 -61
45 -14 85 -25 89 -25 4 0 4 27 0 59 -7 58 3 96 29 113 6 4 33 8 59 8 45 0 52
-4 109 -57 57 -55 70 -77 224 -386 163 -325 164 -328 149 -357 -15 -29 -19
-30 -79 -30 -62 0 -67 2 -158 63 -141 93 -322 177 -386 177 -21 0 -22 -3 -16
-50 5 -41 4 -51 -10 -56 -16 -6 -221 60 -240 77 -6 5 -1 18 12 32 12 13 22 26
22 30 0 13 -155 8 -168 -5 -8 -8 -44 -13 -100 -13 -70 0 -99 -5 -147 -25 l-59
-25 -52 -115 c-28 -63 -48 -119 -44 -123 4 -5 58 14 120 42 61 28 121 51 132
51 18 0 20 -5 15 -35 -5 -29 -1 -38 20 -55 14 -11 31 -20 38 -20 17 0 45 -72
45 -114 0 -22 9 -45 26 -65 29 -35 59 -42 51 -12 -3 13 24 311 32 349 5 20
299 -81 324 -111 10 -12 27 -32 37 -44 10 -11 40 -47 66 -80 26 -32 69 -78 96
-101 26 -24 48 -52 48 -62 0 -16 -11 -18 -90 -22 -55 -2 -94 -8 -102 -16 -27
-27 13 -33 169 -29 132 4 157 7 188 26 47 28 77 27 103 -4 27 -31 70 -33 80
-4 5 12 26 28 48 36 110 42 141 24 173 -102 20 -80 20 -89 6 -130 -26 -77 -39
-262 -26 -363 6 -50 9 -96 6 -103 -3 -8 -29 -30 -58 -49 -32 -22 -53 -44 -55
-58 -5 -31 14 -28 78 13 30 19 65 35 76 35 12 0 43 -19 68 -43 l46 -44 0 -69
c0 -38 5 -152 11 -253 11 -189 7 -231 -25 -231 -27 0 -381 169 -398 191 l-18
21 -33 -21 c-18 -11 -42 -30 -53 -42 -10 -12 -42 -36 -70 -54 -32 -21 -55 -44
-62 -64 -7 -17 -17 -45 -24 -62 -7 -21 -16 -29 -27 -26 -111 32 -106 32 -178
4 -37 -15 -97 -34 -133 -43 -36 -9 -73 -20 -82 -25 -29 -16 -21 -55 18 -91 35
-34 35 -34 43 -148 4 -63 4 -119 0 -124 -4 -4 -58 -23 -121 -42 -112 -33 -211
-44 -223 -24 -9 15 -46 12 -66 -6 -18 -16 -116 -43 -161 -44 l-28 0 0 76 c0
52 11 124 35 227 34 142 35 152 19 164 -10 7 -32 13 -50 13 -47 0 -229 44
-309 75 -38 14 -78 29 -88 32 -13 4 -33 -8 -65 -40 -41 -40 -58 -49 -127 -67
-89 -22 -111 -24 -119 -11 -3 5 -15 81 -26 170 -21 166 -33 211 -57 211 -17 0
-17 -4 8 -213 15 -124 19 -181 11 -189 -10 -10 -186 -45 -257 -50 -35 -3 -40
-7 -43 -31 -2 -15 2 -27 8 -27 6 0 64 9 130 21 65 11 131 19 147 17 25 -3 28
-7 31 -46 4 -53 -12 -61 -67 -33 -61 32 -117 15 -171 -49 -72 -86 -78 -109
-82 -337 -1 -111 0 -204 4 -208 21 -21 1069 126 1330 186 51 12 120 25 153 29
156 20 651 136 1005 237 1208 342 2034 824 2319 1354 90 166 123 339 102 533
-32 311 -251 610 -661 906 -236 170 -637 376 -1022 524 -53 21 -103 45 -111
54 -8 9 -48 91 -88 182 -139 314 -295 598 -482 880 -182 272 -523 690 -563
690 -7 0 -15 -8 -18 -17z m1078 -1766 c13 -13 27 -42 31 -65 3 -22 14 -47 24
-56 10 -9 80 -41 157 -72 524 -210 917 -446 1180 -708 124 -125 183 -203 243
-323 55 -110 72 -177 78 -309 7 -137 -15 -236 -81 -369 -166 -333 -552 -635
-1176 -921 -178 -81 -721 -279 -745 -271 -14 5 34 29 75 38 35 7 156 50 195
69 21 10 218 90 221 90 16 0 87 395 88 485 0 39 -5 153 -12 255 -7 102 -15
263 -19 358 l-6 172 87 0 c69 0 88 3 93 16 6 17 -23 253 -37 289 -8 22 -15 24
-87 27 l-78 3 -3 37 c-3 41 2 44 78 50 33 3 36 6 47 53 11 43 10 68 -7 174
-41 253 -140 643 -180 708 -13 21 -33 34 -72 47 -98 30 -167 122 -168 224 0
30 43 30 74 -1z m-1347 -344 c4 -9 -4 -36 -17 -60 -18 -33 -28 -43 -44 -41
-18 3 -21 10 -21 48 0 37 4 46 25 57 34 17 49 16 57 -4z m1498 -1498 c7 -58 2
-75 -19 -75 -18 0 -46 44 -46 71 0 25 26 59 45 59 8 0 15 -22 20 -55z m-25
-186 c26 -36 16 -55 -24 -45 -22 5 -26 12 -26 46 0 46 15 46 50 -1z m-390
-351 c0 -16 -3 -19 -11 -11 -6 6 -8 16 -5 22 11 17 16 13 16 -11z m-579 -413
c29 -15 30 -18 27 -78 l-3 -62 -50 3 c-27 2 -52 6 -54 7 -5 5 38 145 45 145 3
0 18 -7 35 -15z m279 -121 c191 -83 203 -91 195 -118 -18 -64 -18 -76 1 -76
18 -1 18 -1 1 -11 -20 -12 -146 -49 -162 -49 -5 1 6 8 25 16 19 8 36 17 39 19
6 7 -31 34 -47 35 -8 0 -37 20 -65 45 -30 26 -73 52 -102 61 -27 9 -56 23 -62
32 -14 17 -18 104 -6 116 8 8 -7 14 183 -70z m368 35 c1 -8 -8 -30 -20 -49
l-23 -35 -3 38 c-3 39 12 71 32 64 6 -2 12 -10 14 -18z m-880 -251 c-11 -40
-27 -90 -34 -111 -8 -22 -14 -50 -14 -64 0 -16 -8 -27 -26 -33 -44 -17 -163
-42 -172 -36 -5 3 -10 48 -11 101 -1 93 -1 95 21 95 13 -1 34 -7 48 -15 40
-23 87 -19 105 9 9 14 15 30 14 38 -4 33 3 52 31 80 24 24 33 28 44 19 12 -10
11 -23 -6 -83z m-1478 43 c0 -14 -92 -92 -104 -88 -16 5 -20 56 -6 72 17 21
110 34 110 16z m1630 -25 c7 -10 10 -41 8 -87 -2 -59 -7 -74 -23 -85 -26 -17
-105 -30 -105 -17 0 12 56 179 65 193 9 15 41 12 55 -4z m-1155 -333 c-7 -34
-16 -66 -19 -72 -8 -13 -86 -15 -86 -3 0 18 102 154 110 146 4 -5 2 -37 -5
-71z"/>
<path d="M17762 11708 c-19 -19 -17 -727 2 -753 11 -15 29 -19 92 -21 61 -3
82 -7 92 -21 18 -24 13 -1836 -5 -1854 -7 -7 -47 -14 -90 -17 -55 -3 -82 -9
-90 -20 -10 -12 -13 -103 -13 -374 l0 -358 27 -11 c17 -6 251 -9 663 -7 522 2
640 5 653 17 15 12 17 50 17 367 l0 353 -22 15 c-14 10 -44 16 -78 16 -34 0
-64 6 -78 16 -22 15 -22 18 -22 274 0 246 1 260 19 270 12 6 130 10 314 10
272 0 295 -1 310 -18 15 -16 17 -50 17 -265 l0 -246 -26 -20 c-20 -15 -41 -21
-80 -21 -41 0 -59 -5 -74 -20 -19 -19 -20 -33 -20 -369 0 -312 2 -350 17 -362
13 -12 130 -14 664 -14 465 0 651 3 659 11 16 16 16 720 0 738 -6 8 -41 16
-80 18 -123 9 -110 -100 -110 954 l0 913 21 12 c12 6 50 12 86 13 41 1 69 7
78 17 14 13 16 67 16 384 0 295 -2 370 -13 376 -7 5 -304 9 -660 9 -575 0
-648 -2 -662 -16 -14 -13 -16 -61 -16 -369 0 -417 -5 -397 103 -400 37 -1 74
-8 82 -15 12 -10 15 -46 15 -210 0 -180 -2 -198 -19 -214 -17 -15 -50 -17
-317 -17 -272 0 -300 2 -311 17 -10 13 -13 71 -13 215 0 164 3 199 15 209 9 7
45 14 82 16 110 5 103 -22 103 400 0 349 -1 364 -19 374 -30 15 -1313 14
-1329 -2z"/>
<path d="M39023 11444 l-273 -275 0 -1177 0 -1177 264 -262 c145 -145 276
-267 291 -273 35 -13 1447 -14 1495 0 27 7 96 71 287 262 139 139 257 266 263
281 15 43 14 1329 -2 1345 -17 17 -1159 17 -1176 0 -9 -9 -12 -97 -12 -334 0
-270 2 -323 15 -334 9 -7 52 -12 111 -14 126 -2 124 2 124 -178 0 -153 -6
-176 -60 -221 -47 -40 -90 -47 -303 -47 -222 0 -245 5 -309 68 l-38 36 0 848
0 848 41 40 c23 22 53 44 68 48 14 4 133 7 263 7 l237 0 41 -40 c23 -22 46
-51 52 -65 5 -14 9 -108 8 -209 0 -159 2 -186 16 -202 16 -18 41 -19 464 -19
333 0 449 3 458 12 17 17 16 712 -1 750 -7 15 -130 146 -274 292 l-262 266
-758 0 -758 0 -272 -276z"/>
<path d="M14084 11073 c1 -119 0 -120 -121 -67 -90 38 -102 42 -213 68 -154
35 -324 46 -413 27 -23 -5 -69 -15 -102 -21 -71 -14 -91 -19 -211 -60 -376
-125 -699 -412 -826 -731 -56 -139 -72 -230 -72 -404 0 -142 3 -172 27 -263
69 -267 238 -491 502 -669 152 -102 352 -185 510 -212 214 -36 292 -37 479
-11 92 13 258 66 348 111 80 40 207 122 278 180 30 25 76 60 103 78 87 59 82
31 78 496 -1 225 -5 412 -8 415 -2 3 -179 7 -391 10 l-387 5 -67 34 c-37 19
-97 61 -133 94 -78 70 -87 68 -93 -28 -5 -78 12 -133 69 -217 22 -32 39 -60
39 -63 0 -3 -16 -26 -37 -52 -20 -27 -47 -72 -61 -101 -21 -46 -24 -64 -20
-142 1 -48 7 -92 11 -96 4 -5 42 27 84 70 42 42 90 88 107 101 39 29 103 65
117 65 5 0 42 19 82 42 l72 43 168 0 169 0 24 -28 c24 -28 24 -28 24 -278 l0
-250 -24 -22 c-28 -25 -170 -99 -236 -123 -221 -79 -446 -102 -670 -70 -416
61 -765 377 -819 743 -46 307 46 576 267 785 162 153 362 251 577 284 207 32
567 3 710 -56 86 -35 204 -97 275 -143 46 -31 87 -54 89 -51 6 5 -292 604
-300 604 -4 0 -6 -44 -5 -97z"/>
<path d="M21215 10843 c-100 -104 -197 -206 -216 -227 l-34 -39 -3 -919 c-2
-842 -1 -921 14 -951 10 -17 105 -119 212 -226 154 -153 203 -196 231 -202 48
-11 1154 -11 1183 0 13 5 119 104 236 220 l212 212 0 937 0 937 -218 223 -219
222 -608 0 -608 0 -182 -187z m986 -447 c15 -3 43 -24 63 -46 l36 -40 0 -663
0 -663 -40 -39 -41 -40 -209 0 -209 0 -41 40 -40 39 0 663 0 662 32 38 c18 21
34 40 36 43 4 5 342 17 372 14 8 -1 27 -5 41 -8z"/>
<path d="M23950 11011 c-13 -26 -13 -514 1 -563 7 -29 16 -39 37 -44 15 -3 33
-7 40 -10 16 -5 15 -45 -3 -68 -8 -11 -15 -27 -15 -36 0 -9 -11 -38 -24 -66
-13 -27 -29 -65 -35 -85 -6 -20 -20 -53 -31 -74 -11 -22 -20 -45 -20 -52 0 -8
-11 -36 -25 -63 -14 -27 -25 -55 -25 -62 0 -7 -11 -35 -24 -63 -29 -63 -63
-145 -86 -210 -10 -27 -25 -63 -34 -80 -9 -16 -16 -37 -16 -45 0 -8 -14 -42
-30 -75 -16 -33 -30 -66 -30 -73 0 -7 -11 -35 -25 -62 -14 -27 -25 -55 -25
-62 0 -7 -7 -26 -16 -43 -9 -16 -27 -57 -39 -90 -13 -33 -31 -82 -42 -110 -22
-58 -47 -75 -114 -75 -83 0 -84 -1 -87 -303 -2 -143 -1 -271 2 -283 11 -42 54
-45 556 -42 458 3 472 4 486 23 13 17 15 66 12 298 l-3 278 -33 27 c-37 31
-41 59 -13 93 l19 24 352 0 352 0 19 -24 c25 -30 21 -72 -7 -86 -56 -28 -54
-15 -54 -320 0 -251 2 -284 17 -296 23 -20 976 -26 1013 -6 l25 13 0 292 c0
329 4 312 -77 312 -25 0 -54 3 -63 6 -23 9 -51 69 -126 269 -10 28 -27 68 -39
90 -11 21 -20 45 -20 52 0 8 -11 36 -25 63 -14 27 -25 55 -25 62 0 6 -9 30
-19 52 -28 59 -71 165 -86 212 -7 22 -22 58 -34 79 -12 22 -21 47 -21 55 0 8
-11 35 -24 60 -13 25 -27 59 -30 76 -4 16 -18 52 -31 79 -14 26 -25 54 -25 61
0 7 -11 34 -25 60 -14 26 -25 54 -25 63 0 9 -12 38 -26 65 -32 61 -27 96 15
96 16 0 39 9 52 19 l24 19 3 283 c3 260 1 285 -14 296 -14 10 -168 13 -721 13
-684 0 -703 -1 -713 -19z m746 -1116 c7 -22 22 -58 33 -80 12 -21 21 -46 21
-55 0 -8 7 -28 16 -45 9 -16 25 -54 35 -84 28 -79 25 -81 -146 -81 -174 0
-180 4 -141 82 14 28 26 58 26 64 0 7 11 34 25 60 14 26 25 54 25 63 0 26 64
122 79 119 8 -2 21 -21 27 -43z"/>
<path d="M26217 11012 c-15 -16 -17 -51 -17 -283 0 -308 1 -310 75 -322 28 -5
60 -13 73 -18 l22 -9 0 -724 c0 -800 5 -742 -67 -752 -74 -10 -81 -13 -92 -45
-13 -37 -15 -537 -3 -557 5 -7 24 -17 43 -22 45 -13 979 -13 1013 0 l26 10 0
285 c0 178 -4 294 -10 306 -9 15 -22 19 -65 19 -86 0 -85 -4 -85 250 0 207 1
220 19 230 11 6 88 10 178 10 187 0 205 -7 247 -91 l26 -53 0 -477 c0 -371 3
-480 13 -486 19 -12 838 -16 870 -4 l27 11 0 293 c0 215 -3 296 -12 305 -7 7
-36 12 -64 12 -87 0 -84 -12 -84 324 l0 292 -81 81 c-69 68 -81 85 -76 105 4
14 40 60 82 104 l75 79 0 344 0 343 -31 37 c-17 20 -117 123 -221 229 l-190
192 -837 0 c-799 0 -839 -1 -854 -18z m1308 -626 c12 -8 33 -32 46 -53 20 -32
24 -51 24 -123 0 -72 -4 -91 -24 -123 -39 -64 -47 -66 -239 -68 -126 -1 -176
2 -187 11 -13 11 -15 41 -13 184 3 161 4 171 24 181 33 17 341 9 369 -9z"/>
<path d="M28758 11019 c-17 -9 -18 -34 -18 -294 0 -322 -3 -309 82 -320 29 -4
59 -12 66 -17 9 -8 12 -167 12 -734 l0 -723 -22 -15 c-12 -9 -38 -16 -58 -16
-20 0 -46 -7 -58 -16 -22 -15 -22 -17 -22 -304 l0 -290 28 -7 c15 -5 400 -8
855 -8 l828 0 220 222 219 221 0 925 0 924 -30 38 c-16 21 -40 47 -52 60 -13
12 -99 99 -191 193 l-168 172 -837 0 c-550 -1 -843 -4 -854 -11z m1307 -635
c13 -9 33 -35 45 -58 20 -41 20 -58 20 -684 l0 -642 -26 -40 c-14 -22 -39 -43
-56 -49 -17 -6 -102 -11 -189 -11 -130 0 -160 3 -173 16 -14 14 -16 91 -14
742 3 722 3 726 24 737 12 6 86 9 182 7 128 -1 168 -5 187 -18z"/>
<path d="M31125 11014 c-15 -15 -16 -47 -13 -293 2 -152 7 -283 11 -292 6 -12
26 -18 69 -21 44 -3 64 -10 74 -23 12 -16 14 -146 14 -735 0 -817 8 -750 -87
-750 -35 0 -55 -5 -64 -17 -22 -25 -26 -560 -5 -588 14 -19 28 -20 508 -23
385 -2 502 0 533 10 l40 13 3 270 c2 186 -1 279 -9 298 -12 27 -20 31 -92 41
-72 10 -67 -47 -67 745 0 394 4 722 9 730 5 7 37 18 72 25 52 9 66 16 76 36 9
18 13 97 13 292 0 229 -2 269 -16 282 -14 14 -76 16 -534 16 -467 0 -520 -2
-535 -16z"/>
<path d="M32447 11023 c-4 -3 -7 -138 -7 -299 0 -336 -3 -325 82 -322 39 2 53
-2 64 -17 12 -16 14 -137 14 -735 0 -816 8 -750 -86 -750 -28 0 -55 -5 -62
-12 -9 -9 -12 -90 -12 -305 0 -282 1 -293 20 -303 14 -7 180 -10 523 -8 409 2
507 6 520 17 15 12 17 45 17 290 0 311 -2 321 -65 321 -39 0 -86 16 -97 33
-11 17 -9 469 2 487 16 25 55 -7 99 -81 23 -38 41 -72 41 -77 0 -5 7 -15 16
-23 8 -7 27 -33 40 -58 33 -61 95 -166 211 -354 18 -28 38 -63 45 -77 7 -14
23 -38 35 -53 13 -16 23 -32 23 -37 0 -4 18 -37 40 -71 22 -35 51 -84 65 -109
40 -72 105 -174 121 -190 21 -21 872 -23 897 -1 15 12 17 45 17 292 0 266 -1
280 -20 299 -13 13 -33 20 -56 20 -36 0 -73 15 -86 34 -4 6 -8 331 -8 722 0
805 -8 736 85 748 86 11 85 5 85 327 0 265 -1 279 -19 289 -13 6 -199 10 -534
10 -430 0 -516 -2 -526 -14 -17 -20 -11 -580 6 -597 7 -7 38 -13 68 -14 31 -1
62 -8 68 -14 8 -8 13 -82 15 -246 4 -333 -9 -363 -93 -220 -27 47 -57 97 -65
112 -8 16 -24 42 -36 58 -11 17 -25 41 -32 55 -7 14 -39 68 -72 120 -33 52
-69 114 -79 136 -11 23 -24 45 -30 49 -6 3 -18 21 -26 38 -8 18 -42 75 -75
127 -33 52 -71 115 -85 140 -15 25 -37 63 -50 85 -13 22 -35 60 -49 85 -14 25
-36 57 -51 73 l-26 27 -433 0 c-238 0 -436 -3 -439 -7z"/>
<path d="M35645 10992 c-22 -21 -121 -120 -220 -221 l-180 -182 -3 -936 -2
-937 220 -220 220 -221 557 -3 c307 -2 583 0 613 3 l55 7 197 196 c109 108
204 210 213 228 13 27 15 105 15 536 0 385 -3 509 -13 528 l-13 25 -455 3
c-415 2 -458 1 -470 -14 -20 -24 -25 -477 -6 -514 12 -23 19 -25 92 -28 43 -2
85 -8 92 -14 9 -7 13 -45 13 -132 0 -121 0 -121 -29 -148 -16 -15 -41 -32 -56
-38 -35 -13 -366 -13 -402 0 -15 6 -43 27 -61 46 l-32 36 2 664 3 664 37 36
c46 47 67 50 288 44 l179 -5 35 -40 35 -40 1 -157 c0 -129 3 -159 16 -172 13
-14 60 -16 363 -16 324 0 349 1 364 18 15 16 17 51 17 290 0 165 -4 281 -11
298 -8 22 -226 253 -403 426 l-28 28 -602 0 -601 0 -40 -38z"/>
<path d="M42278 11019 c-17 -9 -18 -34 -18 -293 0 -311 -4 -292 63 -325 27
-13 32 -21 31 -48 -1 -17 -10 -46 -19 -65 -16 -31 -39 -88 -86 -213 -10 -27
-27 -68 -39 -90 -11 -21 -20 -45 -20 -52 0 -8 -11 -36 -25 -63 -14 -27 -25
-57 -25 -66 0 -9 -9 -33 -19 -53 -23 -42 -67 -148 -86 -207 -7 -22 -22 -58
-34 -79 -12 -22 -21 -47 -21 -55 0 -8 -7 -28 -16 -45 -15 -28 -36 -79 -85
-210 -10 -27 -27 -68 -39 -90 -11 -21 -20 -45 -20 -53 0 -29 -34 -83 -61 -97
-15 -8 -51 -15 -78 -15 -39 0 -53 -4 -61 -19 -6 -12 -10 -128 -10 -306 l0
-285 27 -11 c18 -6 198 -9 516 -7 475 3 489 4 503 23 13 17 15 66 12 298 l-3
278 -39 32 -39 33 18 34 c10 19 23 38 29 42 6 4 164 8 352 8 257 0 344 -3 357
-12 25 -19 33 -72 12 -89 -59 -49 -55 -24 -55 -331 0 -161 4 -289 10 -298 8
-13 74 -15 472 -18 255 -1 488 1 518 5 l55 8 2 290 c2 164 -1 296 -6 304 -6 9
-35 17 -76 22 -78 8 -100 24 -119 88 -8 25 -24 64 -35 86 -12 21 -21 45 -21
52 0 8 -11 36 -25 63 -14 27 -25 56 -25 63 0 8 -11 34 -24 59 -13 25 -27 60
-31 78 -4 18 -18 53 -31 78 -13 25 -24 51 -24 59 0 8 -11 35 -25 61 -14 26
-25 54 -25 62 0 8 -7 29 -16 45 -15 28 -36 79 -85 210 -10 28 -27 68 -39 90
-11 21 -20 45 -20 52 0 8 -11 36 -25 63 -14 27 -25 55 -25 61 0 7 -11 36 -25
64 -29 63 -52 142 -42 151 4 4 28 12 54 19 36 9 49 18 54 36 13 46 10 564 -3
577 -16 16 -1414 17 -1440 1z m725 -1109 c14 -11 29 -35 32 -53 4 -17 18 -53
31 -79 13 -26 24 -54 24 -61 0 -8 11 -36 26 -62 14 -26 24 -60 22 -74 l-3 -26
-144 -3 c-100 -2 -148 1 -158 9 -18 15 -9 59 23 115 13 22 24 47 24 54 0 7 11
36 24 64 14 29 28 65 32 81 7 32 22 55 34 55 4 0 19 -9 33 -20z"/>
<path d="M44261 11016 c-18 -21 -17 -756 1 -768 22 -13 572 -10 586 4 7 7 12
38 12 70 0 67 13 79 88 81 35 0 49 -5 64 -22 17 -22 18 -59 18 -728 l0 -704
-25 -24 c-18 -18 -35 -25 -65 -25 -27 0 -47 -7 -60 -20 -19 -19 -20 -33 -20
-299 0 -247 2 -280 17 -292 13 -11 106 -15 487 -17 259 -1 496 1 526 5 l55 8
3 292 c3 333 5 323 -79 323 -36 0 -54 5 -69 20 -20 20 -20 33 -20 734 0 636 2
716 16 730 17 18 30 20 89 16 56 -3 65 -14 65 -79 0 -31 5 -62 12 -69 16 -16
560 -17 589 -2 18 10 19 25 19 385 0 360 -1 375 -19 385 -13 7 -390 10 -1149
10 -956 0 -1131 -2 -1141 -14z"/>
<path d="M46772 11018 c-18 -18 -17 -568 1 -590 7 -9 33 -18 64 -20 91 -8 83
62 83 -759 0 -710 0 -729 -19 -739 -11 -5 -40 -10 -65 -10 -78 0 -76 7 -76
-314 0 -252 2 -285 17 -297 13 -12 180 -15 972 -17 987 -3 1031 -2 1031 36 1
9 1 163 0 342 0 318 -1 325 -21 343 -19 15 -48 17 -283 17 -143 0 -267 -4
-275 -9 -8 -5 -19 -24 -25 -42 -18 -54 -39 -59 -251 -59 -156 0 -195 3 -213
16 -21 15 -22 20 -22 208 0 211 -1 206 59 206 34 0 51 -17 51 -52 0 -17 7 -31
19 -38 12 -6 122 -10 286 -10 164 0 274 4 286 10 18 10 19 25 19 400 0 377 -1
391 -20 410 -19 19 -33 20 -281 20 -150 0 -268 -4 -279 -10 -10 -5 -21 -22
-25 -37 -10 -41 -24 -53 -59 -53 -54 0 -56 7 -56 216 0 155 3 194 15 204 18
15 416 16 444 1 10 -6 22 -23 26 -38 13 -54 8 -53 299 -53 153 0 278 4 286 10
13 8 16 61 20 342 4 259 2 338 -8 356 l-12 22 -988 0 c-755 0 -991 -3 -1000
-12z"/>
<path d="M49032 11018 c-19 -19 -17 -567 2 -594 12 -16 29 -20 106 -23 88 -3
92 -4 102 -30 5 -14 18 -45 28 -67 10 -23 22 -59 26 -80 4 -22 14 -55 24 -74
10 -19 23 -60 30 -90 7 -30 20 -71 30 -90 10 -19 21 -53 24 -75 4 -21 16 -55
26 -75 10 -20 22 -54 26 -75 3 -22 13 -53 21 -69 9 -16 24 -61 35 -100 11 -39
23 -75 28 -81 5 -6 15 -36 21 -66 6 -30 20 -70 29 -89 10 -20 22 -54 26 -75 3
-22 15 -56 24 -75 10 -19 21 -51 25 -70 4 -19 18 -61 31 -92 32 -77 30 -96
-11 -134 l-35 -32 0 -280 c0 -248 2 -281 17 -293 13 -12 134 -14 690 -14 663
0 675 0 689 20 13 17 15 66 12 298 l-3 278 -34 28 c-32 26 -34 31 -27 71 4 23
14 56 23 74 9 17 22 54 29 81 7 28 21 73 32 100 27 70 51 140 70 209 10 33 23
61 30 64 14 4 82 -130 82 -163 0 -11 11 -43 24 -70 12 -28 26 -68 30 -90 4
-22 15 -53 24 -70 13 -26 27 -70 49 -162 4 -17 -2 -25 -26 -37 -17 -9 -33 -26
-36 -39 -3 -12 -4 -148 -3 -302 l3 -280 55 -8 c30 -4 339 -6 686 -5 517 2 634
5 647 17 15 12 17 45 17 293 l0 279 -25 24 c-13 14 -28 25 -33 25 -21 0 -22
36 -3 84 25 63 47 131 73 221 11 39 24 75 28 80 5 6 18 42 28 80 23 78 43 140
78 233 13 34 24 69 24 78 0 9 11 43 24 77 34 90 65 182 86 260 10 37 23 73 29
80 5 7 15 35 21 62 5 28 19 70 29 95 11 25 24 64 30 87 13 49 15 49 135 57 54
3 84 10 95 21 14 13 16 55 19 293 3 274 3 277 -19 294 -20 17 -60 18 -551 18
-346 0 -536 -4 -549 -10 -18 -10 -19 -24 -19 -291 0 -277 4 -319 34 -319 7 0
21 -9 31 -20 17 -19 17 -22 1 -57 -9 -21 -25 -67 -35 -103 -25 -82 -46 -148
-76 -230 -13 -36 -27 -81 -31 -100 -3 -19 -14 -51 -24 -70 -9 -19 -21 -53 -25
-75 -3 -21 -14 -53 -22 -70 -9 -16 -21 -52 -27 -80 -16 -73 -37 -71 -73 7 -17
35 -33 81 -37 103 -4 21 -16 55 -25 75 -10 19 -22 53 -25 75 -4 21 -16 55 -26
75 -10 20 -22 54 -26 75 -3 22 -15 57 -25 77 -11 21 -24 61 -30 90 -6 29 -20
69 -29 88 -10 20 -21 52 -25 72 -6 32 -3 38 27 61 l33 26 3 287 c2 207 0 290
-9 300 -10 12 -107 14 -604 14 -497 0 -594 -2 -604 -14 -9 -10 -11 -93 -9
-301 l3 -286 34 -28 34 -28 -21 -74 c-23 -83 -45 -150 -74 -224 -11 -27 -26
-72 -33 -100 -16 -58 -46 -151 -80 -245 -13 -36 -28 -84 -34 -107 -22 -80 -81
-62 -96 30 -4 23 -15 58 -25 77 -10 19 -21 51 -24 70 -4 19 -17 64 -30 100
-38 106 -56 161 -81 240 -13 41 -31 95 -40 119 -8 24 -18 62 -21 85 -6 41 -5
43 26 56 17 7 36 24 41 37 14 38 12 566 -3 581 -17 17 -1099 17 -1116 0z"/>
<path d="M53906 11008 c-14 -19 -16 -61 -15 -273 1 -137 4 -263 8 -280 5 -27
37 -52 86 -68 10 -4 -25 -118 -55 -177 -11 -22 -20 -45 -20 -52 0 -8 -9 -32
-20 -53 -20 -38 -32 -68 -80 -201 -12 -31 -27 -66 -35 -78 -7 -11 -18 -40 -25
-64 -6 -24 -20 -58 -31 -75 -10 -18 -19 -39 -19 -48 0 -9 -11 -36 -24 -61 -13
-25 -27 -60 -31 -78 -4 -18 -18 -53 -31 -78 -13 -25 -24 -51 -24 -59 0 -7 -11
-36 -25 -63 -14 -27 -25 -55 -25 -63 0 -7 -9 -31 -20 -52 -20 -38 -31 -65 -78
-193 -26 -70 -40 -83 -98 -89 -87 -8 -92 -10 -103 -51 -13 -44 -15 -531 -2
-550 17 -27 95 -32 541 -32 347 0 461 3 480 13 l25 13 0 286 0 287 -34 35
c-29 30 -32 38 -24 63 17 51 31 53 391 53 l333 0 24 -26 c34 -37 32 -70 -5
-89 -16 -8 -34 -24 -40 -34 -6 -12 -10 -125 -10 -294 0 -243 2 -276 17 -288
13 -11 108 -15 503 -17 316 -2 495 1 513 7 l27 11 0 285 c0 178 -4 294 -10
306 -9 15 -22 19 -70 19 -56 0 -61 2 -85 34 -15 19 -37 63 -50 98 -34 95 -64
168 -86 214 -10 22 -19 47 -19 55 0 8 -9 32 -21 54 -12 21 -27 57 -34 79 -15
47 -58 153 -86 212 -10 22 -19 46 -19 52 0 7 -11 35 -25 62 -14 27 -25 55 -25
63 0 7 -9 31 -20 52 -12 22 -29 63 -39 90 -49 131 -70 182 -85 210 -9 17 -16
37 -16 45 0 8 -10 33 -21 55 -48 89 -43 118 23 129 22 4 42 15 48 26 15 28 13
573 -2 588 -9 9 -181 12 -714 12 l-703 0 -15 -22z m748 -1132 c9 -30 20 -58
25 -61 6 -3 17 -31 26 -62 9 -31 22 -65 30 -77 7 -12 18 -38 25 -59 20 -64 11
-68 -159 -65 -144 3 -146 3 -149 26 -2 13 3 33 11 46 9 12 22 45 30 72 9 27
25 67 36 89 12 21 21 46 21 55 0 26 49 90 70 90 14 0 22 -13 34 -54z"/>
<path d="M55883 11023 c-10 -3 -13 -73 -13 -298 0 -353 -13 -325 152 -325
l108 0 435 -431 c348 -345 437 -439 445 -468 11 -41 14 -550 2 -567 -13 -20
-50 -34 -91 -34 -46 0 -68 -18 -76 -63 -3 -18 -5 -147 -3 -287 l3 -255 40 -13
c31 -10 148 -12 533 -10 480 3 494 4 508 23 21 28 17 563 -5 588 -9 12 -29 17
-61 17 -31 0 -56 6 -69 18 -22 17 -22 20 -19 313 l3 297 440 436 440 436 70 0
c122 0 115 -19 115 319 0 210 -3 290 -12 299 -9 9 -157 12 -605 12 -575 0
-593 -1 -603 -19 -13 -25 -14 -514 0 -560 5 -18 19 -40 30 -48 11 -8 20 -21
20 -29 0 -16 -236 -256 -269 -274 -20 -10 -34 1 -156 124 -74 75 -135 141
-135 148 0 6 16 26 35 44 l35 32 0 280 c0 268 -1 282 -19 292 -20 10 -1253 14
-1278 3z"/>
<path d="M12963 10502 c-93 -69 -133 -113 -173 -190 -17 -31 -51 -95 -76 -142
-89 -163 -116 -278 -100 -414 9 -69 23 -69 49 0 37 96 101 220 160 309 56 83
247 457 247 483 0 24 -30 11 -107 -46z"/>
<path d="M12937 10053 c-4 -3 -7 -18 -7 -32 0 -27 7 -54 80 -320 26 -94 38
-157 33 -162 -6 -6 -76 -29 -156 -52 -154 -45 -180 -58 -159 -79 13 -13 44 -6
234 46 71 20 89 22 98 11 14 -17 39 -171 29 -186 -7 -12 -18 -12 -177 11 -46
7 -86 9 -90 5 -19 -19 134 -110 220 -130 45 -10 68 -22 84 -42 l22 -28 22 23
c18 19 28 21 63 16 111 -17 116 -19 131 -66 7 -24 45 -23 72 3 21 20 24 20 95
5 53 -10 89 -12 127 -6 73 12 160 38 167 50 8 13 -63 402 -76 414 -6 6 -13 6
-21 -2 -9 -9 -5 -52 21 -189 19 -98 32 -187 29 -198 -4 -25 -14 -24 -177 20
-68 19 -128 39 -132 46 -4 7 -5 34 -2 60 5 46 4 48 -22 55 -32 8 -55 -14 -55
-51 0 -12 -6 -29 -12 -38 -12 -16 -20 -16 -113 -1 -58 9 -105 22 -111 30 -13
16 -38 178 -33 213 3 19 16 30 59 47 45 18 56 27 58 48 4 31 4 31 -70 4 -35
-12 -63 -17 -68 -12 -4 5 -36 110 -70 234 -56 202 -74 260 -84 260 -1 0 -6 -3
-9 -7z"/>
<path d="M9222 9658 c-18 -18 -17 -1877 1 -1901 11 -16 55 -18 457 -27 287 -6
593 -6 860 0 228 5 432 10 453 10 52 0 85 35 124 130 l31 75 7 846 c7 786 6
846 -10 862 -15 16 -88 17 -964 17 -723 0 -950 -3 -959 -12z"/>
<path d="M14040 9540 c-28 -40 -29 -90 -2 -160 12 -30 21 -74 22 -98 0 -39 2
-43 23 -40 22 3 22 6 25 152 3 149 -3 176 -34 176 -7 0 -22 -14 -34 -30z"/>
<path d="M12195 9208 c-27 -66 -32 -330 -5 -313 4 2 36 53 70 111 68 118 68
116 9 182 -52 57 -57 58 -74 20z"/>
<path d="M12186 8665 c-3 -8 -1 -15 4 -15 6 0 10 7 10 15 0 8 -2 15 -4 15 -2
0 -6 -7 -10 -15z"/>
<path d="M13642 7959 c-28 -11 -22 -24 18 -38 26 -9 34 -7 50 9 11 11 20 25
20 30 0 12 -57 12 -88 -1z"/>
<path d="M10784 7098 c-43 -57 -125 -161 -182 -231 -71 -87 -101 -132 -94
-139 6 -6 8 -52 5 -116 l-4 -107 36 40 c102 111 448 553 443 565 -6 15 -100
90 -113 90 -7 0 -48 -46 -91 -102z"/>
<path d="M9276 6504 c-10 -26 -7 -538 4 -554 8 -12 17 -8 52 26 24 23 52 46
63 51 21 10 174 1 194 -12 6 -3 11 -28 11 -55 0 -58 15 -104 31 -94 25 15 34
62 27 140 -4 44 -12 133 -18 199 -17 208 -25 261 -43 288 l-17 27 -149 0
c-127 0 -150 -2 -155 -16z"/>
<path d="M10480 6175 c-10 -12 -9 -16 3 -21 20 -7 37 3 37 22 0 18 -24 18 -40
-1z"/>
<path d="M10273 5622 c-5 -4 -14 -20 -20 -37 l-10 -30 -236 -5 -237 -5 -85
-85 c-47 -46 -85 -88 -85 -93 0 -4 11 -12 25 -17 13 -5 27 -20 29 -32 11 -48
34 -302 29 -315 -8 -21 -403 -19 -444 2 -29 15 -31 15 -69 -15 -42 -33 -47
-44 -29 -55 6 -4 37 -61 70 -128 42 -86 56 -124 49 -131 -6 -6 -66 -12 -141
-14 l-129 -4 -25 29 c-13 15 -32 39 -43 52 -25 32 -57 22 -50 -14 6 -28 4 -29
-23 -14 -17 9 -25 5 -53 -25 -18 -20 -39 -36 -47 -36 -8 0 -48 -24 -89 -53
-42 -30 -96 -66 -120 -81 -25 -15 -56 -35 -70 -45 -14 -10 -57 -40 -97 -66
-68 -45 -71 -49 -58 -68 10 -14 13 -34 9 -57 -4 -24 -1 -40 8 -47 57 -46 674
-194 932 -223 104 -12 126 -8 126 25 0 27 0 27 165 51 60 8 125 12 145 9 19
-4 87 -11 150 -16 63 -5 131 -11 150 -14 19 -3 56 -7 81 -9 26 -2 62 -9 80
-14 86 -27 431 -44 584 -29 168 17 377 50 560 88 212 44 403 90 423 102 8 6
12 27 10 60 l-3 52 83 29 c45 15 82 34 82 41 0 7 -31 31 -69 54 -37 22 -124
79 -191 126 -68 47 -127 85 -132 85 -5 0 -22 12 -37 28 -15 15 -44 36 -64 47
l-37 20 -39 -43 -39 -42 -91 0 c-71 0 -93 3 -97 15 -3 8 13 42 38 77 32 46 51
64 76 70 17 5 32 13 32 18 0 9 -76 75 -155 136 -37 28 -39 28 -158 25 -82 -2
-122 1 -127 9 -4 6 2 47 12 91 14 59 16 84 8 99 -23 43 -38 21 -65 -95 -27
-115 -28 -115 -149 -115 -71 0 -107 4 -114 13 -8 9 -1 58 24 171 19 87 37 162
40 167 3 5 20 9 39 9 61 0 53 19 -49 116 l-97 92 -63 -5 c-58 -5 -65 -4 -75
16 -7 12 -9 26 -6 31 7 12 -28 31 -42 22z m195 -121 c8 -4 12 -19 10 -32 -3
-23 -6 -24 -83 -24 -79 0 -80 0 -80 25 0 19 6 26 30 31 45 10 108 10 123 0z
m-222 -16 c4 -8 1 -22 -6 -30 -19 -22 -448 -22 -456 0 -4 8 -4 22 0 30 8 23
454 22 462 0z m-11 -145 c9 -14 -16 -323 -28 -337 -7 -10 -56 -13 -184 -13
-130 0 -175 3 -178 13 -8 21 -45 278 -45 313 l0 34 214 0 c127 0 217 -4 221
-10z m228 -5 c4 -8 0 -36 -8 -62 -7 -26 -24 -95 -36 -153 -12 -58 -27 -111
-32 -117 -11 -16 -93 -17 -102 -3 -7 11 13 329 21 342 3 4 38 8 79 8 55 0 74
-4 78 -15z m-767 -421 c14 -17 48 -219 40 -233 -5 -7 -64 -11 -176 -11 -197 0
-171 -16 -246 148 -39 86 -45 105 -33 113 23 14 402 -1 415 -17z m1002 13 c8
-10 0 -41 -33 -121 -24 -59 -49 -114 -55 -122 -14 -16 -175 -21 -185 -5 -6 10
30 191 45 228 10 24 32 28 151 31 44 1 70 -2 77 -11z m272 -7 c0 -12 -30 -72
-66 -135 l-66 -115 -74 0 c-67 0 -74 2 -74 20 0 22 76 218 92 238 7 8 40 12
99 12 83 0 89 -1 89 -20z m150 -12 c11 -18 20 -41 20 -51 0 -18 -66 -123 -103
-164 -26 -29 -97 -33 -97 -6 0 18 102 205 128 236 21 24 29 22 52 -15z m-918
10 c6 -15 -9 -169 -21 -213 l-7 -30 -136 -3 c-100 -2 -138 1 -145 10 -11 14
-33 160 -33 216 l0 32 169 0 c126 0 170 -3 173 -12z m164 -2 c7 -19 -33 -215
-47 -233 -13 -15 -55 -18 -64 -3 -6 10 12 210 21 235 8 20 82 21 90 1z m-1019
-363 c6 -17 -16 -19 -145 -13 -81 4 -117 9 -120 18 -3 10 25 12 129 10 90 -2
134 -7 136 -15z m288 7 c-16 -26 -151 -40 -173 -18 -24 24 -11 28 84 28 58 0
93 -4 89 -10z m-777 -7 c-10 -2 -28 -2 -40 0 -13 2 -5 4 17 4 22 1 32 -1 23
-4z m540 -95 c-6 -17 -122 -30 -154 -17 -45 17 -14 29 72 29 64 0 85 -3 82
-12z"/>
</g>
</svg>
